<mxfile host="app.diagrams.net" modified="2023-11-02T01:25:11.067Z" agent="Mozilla/5.0 (Windows NT 10.0; Win64; x64; rv:109.0) Gecko/20100101 Firefox/119.0" etag="R2APc0LFFOHGBBTHZohj" version="22.0.8" type="github">
  <diagram name="Page-1" id="1wCa1Yt5CTsnViZK9fjl">
    <mxGraphModel dx="954" dy="-506" grid="1" gridSize="10" guides="1" tooltips="1" connect="1" arrows="1" fold="1" page="1" pageScale="1" pageWidth="850" pageHeight="1100" math="0" shadow="0">
      <root>
        <mxCell id="0" />
        <mxCell id="1" parent="0" />
        <mxCell id="1_wOWQfTuLhF0dlJtt1r-1" value="" style="edgeStyle=orthogonalEdgeStyle;rounded=0;orthogonalLoop=1;jettySize=auto;html=1;" edge="1" parent="1" source="1_wOWQfTuLhF0dlJtt1r-2" target="1_wOWQfTuLhF0dlJtt1r-4">
          <mxGeometry relative="1" as="geometry" />
        </mxCell>
        <mxCell id="1_wOWQfTuLhF0dlJtt1r-2" value="MULAI" style="rounded=1;whiteSpace=wrap;html=1;" vertex="1" parent="1">
          <mxGeometry x="250" y="1180" width="120" height="60" as="geometry" />
        </mxCell>
        <mxCell id="1_wOWQfTuLhF0dlJtt1r-3" value="" style="edgeStyle=orthogonalEdgeStyle;rounded=0;orthogonalLoop=1;jettySize=auto;html=1;" edge="1" parent="1" source="1_wOWQfTuLhF0dlJtt1r-4" target="1_wOWQfTuLhF0dlJtt1r-6">
          <mxGeometry relative="1" as="geometry" />
        </mxCell>
        <mxCell id="1_wOWQfTuLhF0dlJtt1r-4" value="INPUT VARIABLE ALAS DAN TINGGI" style="shape=parallelogram;perimeter=parallelogramPerimeter;whiteSpace=wrap;html=1;fixedSize=1;rounded=1;" vertex="1" parent="1">
          <mxGeometry x="215" y="1280" width="190" height="70" as="geometry" />
        </mxCell>
        <mxCell id="1_wOWQfTuLhF0dlJtt1r-5" value="" style="edgeStyle=orthogonalEdgeStyle;rounded=0;orthogonalLoop=1;jettySize=auto;html=1;" edge="1" parent="1" source="1_wOWQfTuLhF0dlJtt1r-6" target="1_wOWQfTuLhF0dlJtt1r-8">
          <mxGeometry relative="1" as="geometry" />
        </mxCell>
        <mxCell id="1_wOWQfTuLhF0dlJtt1r-6" value="LUAS= 1/2 x a x t" style="rounded=0;whiteSpace=wrap;html=1;" vertex="1" parent="1">
          <mxGeometry x="250" y="1390" width="120" height="60" as="geometry" />
        </mxCell>
        <mxCell id="1_wOWQfTuLhF0dlJtt1r-7" value="" style="edgeStyle=orthogonalEdgeStyle;rounded=0;orthogonalLoop=1;jettySize=auto;html=1;" edge="1" parent="1" source="1_wOWQfTuLhF0dlJtt1r-8" target="1_wOWQfTuLhF0dlJtt1r-9">
          <mxGeometry relative="1" as="geometry" />
        </mxCell>
        <mxCell id="1_wOWQfTuLhF0dlJtt1r-8" value="OUTPUT ADALAH HASIL DARI VARIABLE LUAS" style="shape=parallelogram;perimeter=parallelogramPerimeter;whiteSpace=wrap;html=1;fixedSize=1;rounded=0;" vertex="1" parent="1">
          <mxGeometry x="205" y="1490" width="210" height="80" as="geometry" />
        </mxCell>
        <mxCell id="1_wOWQfTuLhF0dlJtt1r-9" value="SELESAI" style="rounded=1;whiteSpace=wrap;html=1;" vertex="1" parent="1">
          <mxGeometry x="250" y="1610" width="120" height="60" as="geometry" />
        </mxCell>
      </root>
    </mxGraphModel>
  </diagram>
</mxfile>
